<svg xmlns="http://www.w3.org/2000/svg" xmlns:xlink="http://www.w3.org/1999/xlink" width="128" zoomAndPan="magnify" viewBox="0 0 96 95.999999" height="128" preserveAspectRatio="xMidYMid meet" version="1.0"><defs><g/><clipPath id="bb4e34a0a2"><path d="M 27.214844 27 L 68 27 L 68 68 L 27.214844 68 Z M 27.214844 27 " clip-rule="nonzero"/></clipPath></defs><rect x="-9.6" width="115.2" fill="#ffffff" y="-9.6" height="115.199999" fill-opacity="1"/><rect x="-9.6" width="115.2" fill="#016080" y="-9.6" height="115.199999" fill-opacity="1"/><g clip-path="url(#bb4e34a0a2)"><path fill="#ffffff" d="M 47.386719 67.558594 C 36.25 67.558594 27.214844 58.523438 27.214844 47.386719 C 27.214844 36.25 36.25 27.214844 47.386719 27.214844 C 58.523438 27.214844 67.558594 36.25 67.558594 47.386719 C 67.558594 58.523438 58.523438 67.558594 47.386719 67.558594 Z M 47.386719 63.890625 C 56.5 63.890625 63.890625 56.5 63.890625 47.386719 C 63.890625 38.277344 56.5 30.882812 47.386719 30.882812 C 38.273438 30.882812 30.882812 38.277344 30.882812 47.386719 C 30.882812 56.5 38.273438 63.890625 47.386719 63.890625 Z M 51.75 44.199219 C 51.628906 43.691406 51.445312 43.222656 51.21875 42.804688 C 50.988281 42.382812 50.691406 42.011719 50.328125 41.695312 C 49.976562 41.390625 49.554688 41.152344 49.066406 40.980469 C 48.589844 40.808594 48.027344 40.722656 47.386719 40.722656 C 46.460938 40.722656 45.65625 40.902344 44.980469 41.285156 C 44.300781 41.65625 43.746094 42.164062 43.316406 42.792969 C 42.898438 43.425781 42.582031 44.132812 42.382812 44.933594 C 42.171875 45.734375 42.066406 46.558594 42.066406 47.386719 C 42.066406 48.21875 42.171875 49.039062 42.382812 49.84375 C 42.582031 50.644531 42.898438 51.351562 43.316406 51.980469 C 43.746094 52.613281 44.300781 53.117188 44.980469 53.492188 C 45.65625 53.871094 46.460938 54.054688 47.386719 54.054688 C 48.074219 54.054688 48.6875 53.941406 49.203125 53.699219 C 49.726562 53.460938 50.175781 53.136719 50.558594 52.71875 C 50.929688 52.308594 51.226562 51.816406 51.4375 51.265625 C 51.648438 50.699219 51.789062 50.109375 51.855469 49.46875 L 54.847656 49.46875 C 54.777344 50.519531 54.550781 51.476562 54.167969 52.34375 C 53.785156 53.203125 53.269531 53.949219 52.613281 54.578125 C 51.960938 55.210938 51.1875 55.695312 50.308594 56.039062 C 49.421875 56.386719 48.457031 56.558594 47.386719 56.558594 C 46.089844 56.558594 44.914062 56.316406 43.871094 55.832031 C 42.832031 55.355469 41.953125 54.695312 41.234375 53.863281 C 40.519531 53.023438 39.964844 52.058594 39.582031 50.941406 C 39.203125 49.832031 39.011719 48.648438 39.011719 47.386719 C 39.011719 46.144531 39.203125 44.972656 39.582031 43.855469 C 39.964844 42.746094 40.519531 41.773438 41.234375 40.941406 C 41.953125 40.109375 42.832031 39.441406 43.871094 38.953125 C 44.914062 38.46875 46.089844 38.21875 47.386719 38.21875 C 48.371094 38.21875 49.296875 38.351562 50.15625 38.621094 C 51.027344 38.898438 51.789062 39.289062 52.449219 39.804688 C 53.117188 40.308594 53.652344 40.941406 54.0625 41.675781 C 54.464844 42.410156 54.722656 43.253906 54.816406 44.199219 Z M 51.75 44.199219 " fill-opacity="1" fill-rule="nonzero"/></g><g fill="#ffffff" fill-opacity="1"><g transform="translate(6.027738, 85.212763)"><g><path d="M 1.921875 0.046875 C 1.597656 0.046875 1.3125 -0.0195312 1.0625 -0.15625 C 0.8125 -0.289062 0.617188 -0.488281 0.484375 -0.75 C 0.347656 -1.019531 0.28125 -1.351562 0.28125 -1.75 C 0.28125 -2.144531 0.347656 -2.476562 0.484375 -2.75 C 0.617188 -3.019531 0.8125 -3.222656 1.0625 -3.359375 C 1.3125 -3.492188 1.597656 -3.5625 1.921875 -3.5625 C 2.253906 -3.5625 2.539062 -3.492188 2.78125 -3.359375 C 3.019531 -3.234375 3.1875 -3.035156 3.28125 -2.765625 L 2.78125 -2.453125 L 2.71875 -2.453125 C 2.644531 -2.640625 2.539062 -2.769531 2.40625 -2.84375 C 2.28125 -2.925781 2.117188 -2.96875 1.921875 -2.96875 C 1.628906 -2.96875 1.398438 -2.867188 1.234375 -2.671875 C 1.078125 -2.484375 1 -2.175781 1 -1.75 C 1 -1.332031 1.078125 -1.023438 1.234375 -0.828125 C 1.398438 -0.640625 1.628906 -0.546875 1.921875 -0.546875 C 2.378906 -0.546875 2.660156 -0.769531 2.765625 -1.21875 L 2.8125 -1.21875 L 3.328125 -0.953125 C 3.234375 -0.617188 3.066406 -0.367188 2.828125 -0.203125 C 2.597656 -0.0351562 2.296875 0.046875 1.921875 0.046875 Z M 1.921875 0.046875 "/></g></g></g><g fill="#ffffff" fill-opacity="1"><g transform="translate(9.477781, 85.212763)"><g><path d="M 1.546875 0.046875 C 1.285156 0.046875 1.054688 -0.00390625 0.859375 -0.109375 C 0.660156 -0.210938 0.503906 -0.367188 0.390625 -0.578125 C 0.285156 -0.785156 0.234375 -1.035156 0.234375 -1.328125 C 0.234375 -1.617188 0.285156 -1.863281 0.390625 -2.0625 C 0.503906 -2.269531 0.660156 -2.425781 0.859375 -2.53125 C 1.054688 -2.644531 1.285156 -2.703125 1.546875 -2.703125 C 1.804688 -2.703125 2.03125 -2.644531 2.21875 -2.53125 C 2.414062 -2.425781 2.566406 -2.269531 2.671875 -2.0625 C 2.785156 -1.863281 2.84375 -1.617188 2.84375 -1.328125 C 2.84375 -1.035156 2.785156 -0.785156 2.671875 -0.578125 C 2.566406 -0.367188 2.414062 -0.210938 2.21875 -0.109375 C 2.03125 -0.00390625 1.804688 0.046875 1.546875 0.046875 Z M 1.546875 -0.515625 C 1.953125 -0.515625 2.15625 -0.785156 2.15625 -1.328125 C 2.15625 -1.609375 2.101562 -1.8125 2 -1.9375 C 1.894531 -2.070312 1.742188 -2.140625 1.546875 -2.140625 C 1.128906 -2.140625 0.921875 -1.867188 0.921875 -1.328125 C 0.921875 -0.785156 1.128906 -0.515625 1.546875 -0.515625 Z M 1.546875 -0.515625 "/></g></g></g><g fill="#ffffff" fill-opacity="1"><g transform="translate(12.562129, 85.212763)"><g><path d="M 0.375 1.078125 L 0.375 -2.65625 L 1.046875 -2.65625 L 1.046875 -2.3125 L 1.09375 -2.296875 C 1.175781 -2.429688 1.28125 -2.53125 1.40625 -2.59375 C 1.539062 -2.664062 1.695312 -2.703125 1.875 -2.703125 C 2.082031 -2.703125 2.265625 -2.648438 2.421875 -2.546875 C 2.585938 -2.453125 2.710938 -2.300781 2.796875 -2.09375 C 2.890625 -1.882812 2.9375 -1.628906 2.9375 -1.328125 C 2.9375 -1.023438 2.890625 -0.769531 2.796875 -0.5625 C 2.703125 -0.351562 2.570312 -0.195312 2.40625 -0.09375 C 2.238281 0 2.046875 0.046875 1.828125 0.046875 C 1.660156 0.046875 1.515625 0.0195312 1.390625 -0.03125 C 1.273438 -0.0820312 1.175781 -0.171875 1.09375 -0.296875 L 1.046875 -0.28125 L 1.046875 1.078125 Z M 1.640625 -0.515625 C 1.835938 -0.515625 1.988281 -0.578125 2.09375 -0.703125 C 2.195312 -0.835938 2.25 -1.046875 2.25 -1.328125 C 2.25 -1.609375 2.195312 -1.8125 2.09375 -1.9375 C 1.988281 -2.070312 1.835938 -2.140625 1.640625 -2.140625 C 1.460938 -2.140625 1.316406 -2.070312 1.203125 -1.9375 C 1.097656 -1.800781 1.046875 -1.597656 1.046875 -1.328125 C 1.046875 -1.054688 1.097656 -0.851562 1.203125 -0.71875 C 1.316406 -0.582031 1.460938 -0.515625 1.640625 -0.515625 Z M 1.640625 -0.515625 "/></g></g></g><g fill="#ffffff" fill-opacity="1"><g transform="translate(15.740309, 85.212763)"><g><path d="M 0.59375 1.125 C 0.476562 1.125 0.375 1.113281 0.28125 1.09375 C 0.1875 1.082031 0.109375 1.0625 0.046875 1.03125 L 0.15625 0.484375 L 0.203125 0.46875 C 0.242188 0.488281 0.289062 0.503906 0.34375 0.515625 C 0.40625 0.535156 0.46875 0.546875 0.53125 0.546875 C 0.632812 0.546875 0.722656 0.53125 0.796875 0.5 C 0.867188 0.476562 0.929688 0.429688 0.984375 0.359375 C 1.035156 0.296875 1.078125 0.207031 1.109375 0.09375 L 0.0625 -2.65625 L 0.75 -2.65625 L 1.40625 -0.8125 L 1.46875 -0.8125 L 2.109375 -2.65625 L 2.796875 -2.65625 L 1.71875 0.171875 C 1.632812 0.390625 1.539062 0.566406 1.4375 0.703125 C 1.34375 0.847656 1.222656 0.953125 1.078125 1.015625 C 0.941406 1.085938 0.78125 1.125 0.59375 1.125 Z M 0.59375 1.125 "/></g></g></g><g fill="#ffffff" fill-opacity="1"><g transform="translate(18.58888, 85.212763)"><g><path d="M 0.375 0 L 0.375 -2.65625 L 1.03125 -2.65625 L 1.03125 -2.25 L 1.078125 -2.25 C 1.140625 -2.394531 1.222656 -2.5 1.328125 -2.5625 C 1.429688 -2.632812 1.5625 -2.671875 1.71875 -2.671875 C 1.863281 -2.671875 1.976562 -2.644531 2.0625 -2.59375 L 1.9375 -2.03125 L 1.890625 -2.015625 C 1.847656 -2.035156 1.804688 -2.046875 1.765625 -2.046875 C 1.722656 -2.054688 1.675781 -2.0625 1.625 -2.0625 C 1.4375 -2.0625 1.289062 -1.992188 1.1875 -1.859375 C 1.09375 -1.734375 1.046875 -1.523438 1.046875 -1.234375 L 1.046875 0 Z M 0.375 0 "/></g></g></g><g fill="#ffffff" fill-opacity="1"><g transform="translate(20.669974, 85.212763)"><g><path d="M 0.71875 -2.96875 C 0.59375 -2.96875 0.492188 -3.003906 0.421875 -3.078125 C 0.347656 -3.148438 0.3125 -3.242188 0.3125 -3.359375 C 0.3125 -3.472656 0.347656 -3.566406 0.421875 -3.640625 C 0.492188 -3.710938 0.59375 -3.75 0.71875 -3.75 C 0.789062 -3.75 0.859375 -3.726562 0.921875 -3.6875 C 0.984375 -3.65625 1.03125 -3.609375 1.0625 -3.546875 C 1.101562 -3.492188 1.125 -3.429688 1.125 -3.359375 C 1.125 -3.285156 1.101562 -3.21875 1.0625 -3.15625 C 1.03125 -3.09375 0.984375 -3.046875 0.921875 -3.015625 C 0.859375 -2.984375 0.789062 -2.96875 0.71875 -2.96875 Z M 0.375 0 L 0.375 -2.65625 L 1.046875 -2.65625 L 1.046875 0 Z M 0.375 0 "/></g></g></g><g fill="#ffffff" fill-opacity="1"><g transform="translate(22.099072, 85.212763)"><g><path d="M 1.375 1.125 C 0.9375 1.125 0.613281 1.054688 0.40625 0.921875 C 0.195312 0.796875 0.09375 0.617188 0.09375 0.390625 C 0.09375 0.253906 0.132812 0.140625 0.21875 0.046875 C 0.3125 -0.0351562 0.441406 -0.09375 0.609375 -0.125 L 0.609375 -0.171875 C 0.515625 -0.222656 0.445312 -0.28125 0.40625 -0.34375 C 0.375 -0.414062 0.359375 -0.5 0.359375 -0.59375 C 0.359375 -0.800781 0.5 -0.941406 0.78125 -1.015625 L 0.78125 -1.0625 C 0.632812 -1.144531 0.523438 -1.25 0.453125 -1.375 C 0.378906 -1.5 0.34375 -1.644531 0.34375 -1.8125 C 0.34375 -1.988281 0.382812 -2.144531 0.46875 -2.28125 C 0.550781 -2.414062 0.671875 -2.519531 0.828125 -2.59375 C 0.984375 -2.664062 1.164062 -2.703125 1.375 -2.703125 C 1.601562 -2.703125 1.78125 -2.660156 1.90625 -2.578125 C 1.988281 -2.703125 2.035156 -2.84375 2.046875 -3 L 2.109375 -3.03125 L 2.578125 -2.90625 C 2.566406 -2.78125 2.53125 -2.675781 2.46875 -2.59375 C 2.40625 -2.507812 2.3125 -2.429688 2.1875 -2.359375 L 2.1875 -2.3125 C 2.34375 -2.175781 2.421875 -1.992188 2.421875 -1.765625 C 2.421875 -1.597656 2.378906 -1.445312 2.296875 -1.3125 C 2.210938 -1.1875 2.09375 -1.085938 1.9375 -1.015625 C 1.78125 -0.941406 1.59375 -0.90625 1.375 -0.90625 L 1.28125 -0.90625 C 1.21875 -0.90625 1.171875 -0.90625 1.140625 -0.90625 C 1.085938 -0.90625 1.039062 -0.890625 1 -0.859375 C 0.96875 -0.828125 0.953125 -0.785156 0.953125 -0.734375 C 0.953125 -0.671875 0.972656 -0.625 1.015625 -0.59375 C 1.066406 -0.5625 1.132812 -0.546875 1.21875 -0.546875 L 1.8125 -0.53125 C 2.394531 -0.507812 2.6875 -0.253906 2.6875 0.234375 C 2.6875 0.398438 2.640625 0.550781 2.546875 0.6875 C 2.460938 0.820312 2.320312 0.925781 2.125 1 C 1.9375 1.082031 1.6875 1.125 1.375 1.125 Z M 1.375 -1.359375 C 1.507812 -1.359375 1.613281 -1.394531 1.6875 -1.46875 C 1.757812 -1.550781 1.796875 -1.660156 1.796875 -1.796875 C 1.796875 -1.941406 1.757812 -2.050781 1.6875 -2.125 C 1.613281 -2.195312 1.507812 -2.234375 1.375 -2.234375 C 1.25 -2.234375 1.148438 -2.195312 1.078125 -2.125 C 1.003906 -2.050781 0.96875 -1.941406 0.96875 -1.796875 C 0.96875 -1.660156 1.003906 -1.550781 1.078125 -1.46875 C 1.148438 -1.394531 1.25 -1.359375 1.375 -1.359375 Z M 1.375 0.640625 C 1.601562 0.640625 1.769531 0.609375 1.875 0.546875 C 1.976562 0.484375 2.03125 0.398438 2.03125 0.296875 C 2.03125 0.210938 2.003906 0.148438 1.953125 0.109375 C 1.898438 0.0664062 1.8125 0.046875 1.6875 0.046875 L 1.171875 0.03125 C 1.148438 0.03125 1.128906 0.0234375 1.109375 0.015625 C 1.097656 0.015625 1.085938 0.015625 1.078125 0.015625 C 0.960938 0.015625 0.875 0.0351562 0.8125 0.078125 C 0.757812 0.128906 0.734375 0.203125 0.734375 0.296875 C 0.734375 0.398438 0.785156 0.484375 0.890625 0.546875 C 1.003906 0.609375 1.164062 0.640625 1.375 0.640625 Z M 1.375 0.640625 "/></g></g></g><g fill="#ffffff" fill-opacity="1"><g transform="translate(24.858626, 85.212763)"><g><path d="M 0.375 0 L 0.375 -3.71875 L 1.046875 -3.71875 L 1.046875 -2.3125 L 1.09375 -2.296875 C 1.1875 -2.421875 1.296875 -2.519531 1.421875 -2.59375 C 1.546875 -2.664062 1.703125 -2.703125 1.890625 -2.703125 C 2.472656 -2.703125 2.765625 -2.367188 2.765625 -1.703125 L 2.765625 0 L 2.09375 0 L 2.09375 -1.625 C 2.09375 -1.800781 2.054688 -1.929688 1.984375 -2.015625 C 1.910156 -2.097656 1.800781 -2.140625 1.65625 -2.140625 C 1.46875 -2.140625 1.316406 -2.078125 1.203125 -1.953125 C 1.097656 -1.828125 1.046875 -1.632812 1.046875 -1.375 L 1.046875 0 Z M 0.375 0 "/></g></g></g><g fill="#ffffff" fill-opacity="1"><g transform="translate(27.967034, 85.212763)"><g><path d="M 1.828125 -0.625 L 2 -0.140625 C 1.925781 -0.078125 1.832031 -0.03125 1.71875 0 C 1.613281 0.03125 1.492188 0.046875 1.359375 0.046875 C 1.078125 0.046875 0.859375 -0.03125 0.703125 -0.1875 C 0.554688 -0.34375 0.484375 -0.566406 0.484375 -0.859375 L 0.484375 -2.125 L 0.078125 -2.125 L 0.078125 -2.65625 L 0.484375 -2.65625 L 0.484375 -3.171875 L 1.15625 -3.28125 L 1.15625 -2.65625 L 1.90625 -2.65625 L 1.90625 -2.125 L 1.15625 -2.125 L 1.15625 -0.90625 C 1.15625 -0.78125 1.179688 -0.6875 1.234375 -0.625 C 1.285156 -0.5625 1.363281 -0.53125 1.46875 -0.53125 C 1.582031 -0.53125 1.6875 -0.5625 1.78125 -0.625 Z M 1.828125 -0.625 "/></g></g></g><g fill="#ffffff" fill-opacity="1"><g transform="translate(30.028881, 85.212763)"><g/></g></g><g fill="#ffffff" fill-opacity="1"><g transform="translate(31.190926, 85.212763)"><g><path d="M 2.0625 0.046875 C 1.726562 0.046875 1.425781 -0.03125 1.15625 -0.1875 C 0.882812 -0.34375 0.671875 -0.554688 0.515625 -0.828125 C 0.367188 -1.109375 0.296875 -1.414062 0.296875 -1.75 C 0.296875 -2.09375 0.367188 -2.398438 0.515625 -2.671875 C 0.671875 -2.953125 0.882812 -3.171875 1.15625 -3.328125 C 1.425781 -3.484375 1.726562 -3.5625 2.0625 -3.5625 C 2.394531 -3.5625 2.695312 -3.484375 2.96875 -3.328125 C 3.238281 -3.171875 3.445312 -2.953125 3.59375 -2.671875 C 3.75 -2.398438 3.828125 -2.09375 3.828125 -1.75 C 3.828125 -1.414062 3.75 -1.109375 3.59375 -0.828125 C 3.445312 -0.554688 3.238281 -0.34375 2.96875 -0.1875 C 2.695312 -0.03125 2.394531 0.046875 2.0625 0.046875 Z M 2.0625 -0.328125 C 2.320312 -0.328125 2.550781 -0.382812 2.75 -0.5 C 2.957031 -0.625 3.117188 -0.796875 3.234375 -1.015625 C 3.347656 -1.234375 3.40625 -1.476562 3.40625 -1.75 C 3.40625 -2.03125 3.347656 -2.28125 3.234375 -2.5 C 3.117188 -2.71875 2.957031 -2.882812 2.75 -3 C 2.550781 -3.125 2.320312 -3.1875 2.0625 -3.1875 C 1.800781 -3.1875 1.566406 -3.125 1.359375 -3 C 1.160156 -2.882812 1.003906 -2.71875 0.890625 -2.5 C 0.773438 -2.28125 0.71875 -2.03125 0.71875 -1.75 C 0.71875 -1.476562 0.773438 -1.234375 0.890625 -1.015625 C 1.003906 -0.796875 1.160156 -0.625 1.359375 -0.5 C 1.566406 -0.382812 1.800781 -0.328125 2.0625 -0.328125 Z M 2.140625 -0.75 C 1.941406 -0.75 1.769531 -0.785156 1.625 -0.859375 C 1.488281 -0.929688 1.378906 -1.046875 1.296875 -1.203125 C 1.222656 -1.359375 1.1875 -1.539062 1.1875 -1.75 C 1.1875 -1.96875 1.222656 -2.148438 1.296875 -2.296875 C 1.378906 -2.453125 1.488281 -2.566406 1.625 -2.640625 C 1.769531 -2.722656 1.941406 -2.765625 2.140625 -2.765625 C 2.335938 -2.765625 2.5 -2.726562 2.625 -2.65625 C 2.75 -2.582031 2.84375 -2.46875 2.90625 -2.3125 L 2.546875 -2.09375 L 2.5 -2.09375 C 2.46875 -2.175781 2.421875 -2.238281 2.359375 -2.28125 C 2.304688 -2.320312 2.234375 -2.34375 2.140625 -2.34375 C 1.847656 -2.34375 1.703125 -2.144531 1.703125 -1.75 C 1.703125 -1.550781 1.738281 -1.40625 1.8125 -1.3125 C 1.882812 -1.21875 1.992188 -1.171875 2.140625 -1.171875 C 2.242188 -1.171875 2.328125 -1.195312 2.390625 -1.25 C 2.453125 -1.3125 2.492188 -1.394531 2.515625 -1.5 L 2.5625 -1.5 L 2.9375 -1.328125 C 2.789062 -0.941406 2.523438 -0.75 2.140625 -0.75 Z M 2.140625 -0.75 "/></g></g></g><g fill="#ffffff" fill-opacity="1"><g transform="translate(35.31943, 85.212763)"><g/></g></g><g fill="#ffffff" fill-opacity="1"><g transform="translate(36.481475, 85.212763)"><g><path d="M 0.171875 -0.28125 C 0.171875 -0.46875 0.191406 -0.628906 0.234375 -0.765625 C 0.273438 -0.898438 0.34375 -1.019531 0.4375 -1.125 C 0.539062 -1.238281 0.675781 -1.359375 0.84375 -1.484375 L 1.3125 -1.828125 C 1.445312 -1.921875 1.546875 -2 1.609375 -2.0625 C 1.679688 -2.132812 1.734375 -2.207031 1.765625 -2.28125 C 1.804688 -2.351562 1.828125 -2.4375 1.828125 -2.53125 C 1.828125 -2.664062 1.785156 -2.769531 1.703125 -2.84375 C 1.617188 -2.925781 1.488281 -2.96875 1.3125 -2.96875 C 1.144531 -2.96875 0.992188 -2.925781 0.859375 -2.84375 C 0.734375 -2.769531 0.628906 -2.664062 0.546875 -2.53125 L 0.5 -2.515625 L 0.125 -2.953125 C 0.25 -3.128906 0.410156 -3.273438 0.609375 -3.390625 C 0.804688 -3.503906 1.050781 -3.5625 1.34375 -3.5625 C 1.601562 -3.5625 1.820312 -3.515625 2 -3.421875 C 2.175781 -3.335938 2.304688 -3.222656 2.390625 -3.078125 C 2.472656 -2.929688 2.515625 -2.757812 2.515625 -2.5625 C 2.515625 -2.394531 2.476562 -2.242188 2.40625 -2.109375 C 2.34375 -1.972656 2.25 -1.84375 2.125 -1.71875 C 2 -1.601562 1.84375 -1.476562 1.65625 -1.34375 L 1.234375 -1.0625 C 1.109375 -0.96875 1.019531 -0.882812 0.96875 -0.8125 C 0.925781 -0.75 0.90625 -0.671875 0.90625 -0.578125 L 2.484375 -0.578125 L 2.484375 0 L 0.171875 0 Z M 0.171875 -0.28125 "/></g></g></g><g fill="#ffffff" fill-opacity="1"><g transform="translate(39.226594, 85.212763)"><g><path d="M 1.71875 0.046875 C 1.425781 0.046875 1.175781 -0.015625 0.96875 -0.140625 C 0.757812 -0.265625 0.59375 -0.460938 0.46875 -0.734375 C 0.351562 -1.003906 0.296875 -1.34375 0.296875 -1.75 C 0.296875 -2.164062 0.351562 -2.507812 0.46875 -2.78125 C 0.59375 -3.050781 0.757812 -3.25 0.96875 -3.375 C 1.175781 -3.5 1.425781 -3.5625 1.71875 -3.5625 C 2.007812 -3.5625 2.257812 -3.5 2.46875 -3.375 C 2.675781 -3.25 2.835938 -3.050781 2.953125 -2.78125 C 3.078125 -2.507812 3.140625 -2.164062 3.140625 -1.75 C 3.140625 -1.34375 3.078125 -1.003906 2.953125 -0.734375 C 2.835938 -0.460938 2.675781 -0.265625 2.46875 -0.140625 C 2.257812 -0.015625 2.007812 0.046875 1.71875 0.046875 Z M 1.71875 -0.53125 C 1.875 -0.53125 2.003906 -0.566406 2.109375 -0.640625 C 2.210938 -0.722656 2.289062 -0.851562 2.34375 -1.03125 C 2.40625 -1.21875 2.4375 -1.457031 2.4375 -1.75 C 2.4375 -2.050781 2.40625 -2.289062 2.34375 -2.46875 C 2.289062 -2.65625 2.210938 -2.785156 2.109375 -2.859375 C 2.003906 -2.929688 1.875 -2.96875 1.71875 -2.96875 C 1.5625 -2.96875 1.425781 -2.929688 1.3125 -2.859375 C 1.207031 -2.785156 1.128906 -2.65625 1.078125 -2.46875 C 1.023438 -2.289062 1 -2.050781 1 -1.75 C 1 -1.457031 1.023438 -1.21875 1.078125 -1.03125 C 1.128906 -0.851562 1.207031 -0.722656 1.3125 -0.640625 C 1.425781 -0.566406 1.5625 -0.53125 1.71875 -0.53125 Z M 1.71875 -0.53125 "/></g></g></g><g fill="#ffffff" fill-opacity="1"><g transform="translate(42.664609, 85.212763)"><g><path d="M 0.171875 -0.28125 C 0.171875 -0.46875 0.191406 -0.628906 0.234375 -0.765625 C 0.273438 -0.898438 0.34375 -1.019531 0.4375 -1.125 C 0.539062 -1.238281 0.675781 -1.359375 0.84375 -1.484375 L 1.3125 -1.828125 C 1.445312 -1.921875 1.546875 -2 1.609375 -2.0625 C 1.679688 -2.132812 1.734375 -2.207031 1.765625 -2.28125 C 1.804688 -2.351562 1.828125 -2.4375 1.828125 -2.53125 C 1.828125 -2.664062 1.785156 -2.769531 1.703125 -2.84375 C 1.617188 -2.925781 1.488281 -2.96875 1.3125 -2.96875 C 1.144531 -2.96875 0.992188 -2.925781 0.859375 -2.84375 C 0.734375 -2.769531 0.628906 -2.664062 0.546875 -2.53125 L 0.5 -2.515625 L 0.125 -2.953125 C 0.25 -3.128906 0.410156 -3.273438 0.609375 -3.390625 C 0.804688 -3.503906 1.050781 -3.5625 1.34375 -3.5625 C 1.601562 -3.5625 1.820312 -3.515625 2 -3.421875 C 2.175781 -3.335938 2.304688 -3.222656 2.390625 -3.078125 C 2.472656 -2.929688 2.515625 -2.757812 2.515625 -2.5625 C 2.515625 -2.394531 2.476562 -2.242188 2.40625 -2.109375 C 2.34375 -1.972656 2.25 -1.84375 2.125 -1.71875 C 2 -1.601562 1.84375 -1.476562 1.65625 -1.34375 L 1.234375 -1.0625 C 1.109375 -0.96875 1.019531 -0.882812 0.96875 -0.8125 C 0.925781 -0.75 0.90625 -0.671875 0.90625 -0.578125 L 2.484375 -0.578125 L 2.484375 0 L 0.171875 0 Z M 0.171875 -0.28125 "/></g></g></g><g fill="#ffffff" fill-opacity="1"><g transform="translate(45.409729, 85.212763)"><g><path d="M 2.390625 0 L 1.71875 0 L 1.71875 -0.765625 L 0.125 -0.765625 L 0.125 -1.328125 L 1.5 -3.515625 L 2.390625 -3.515625 L 2.390625 -1.328125 L 2.921875 -1.328125 L 2.921875 -0.765625 L 2.390625 -0.765625 Z M 0.828125 -1.375 L 0.859375 -1.328125 L 1.71875 -1.328125 L 1.71875 -2.6875 L 1.671875 -2.6875 Z M 0.828125 -1.375 "/></g></g></g><g fill="#ffffff" fill-opacity="1"><g transform="translate(48.47483, 85.212763)"><g/></g></g><g fill="#ffffff" fill-opacity="1"><g transform="translate(49.636875, 85.212763)"><g><path d="M 1.71875 -3.515625 C 2.289062 -3.515625 2.726562 -3.363281 3.03125 -3.0625 C 3.332031 -2.769531 3.484375 -2.332031 3.484375 -1.75 C 3.484375 -1.175781 3.332031 -0.738281 3.03125 -0.4375 C 2.726562 -0.144531 2.289062 0 1.71875 0 L 0.453125 0 L 0.453125 -3.515625 Z M 1.6875 -0.578125 C 2.039062 -0.578125 2.304688 -0.671875 2.484375 -0.859375 C 2.671875 -1.046875 2.765625 -1.34375 2.765625 -1.75 C 2.765625 -2.164062 2.671875 -2.460938 2.484375 -2.640625 C 2.304688 -2.828125 2.039062 -2.921875 1.6875 -2.921875 L 1.15625 -2.921875 L 1.15625 -0.578125 Z M 1.6875 -0.578125 "/></g></g></g><g fill="#ffffff" fill-opacity="1"><g transform="translate(53.397279, 85.212763)"><g><path d="M 0.375 0 L 0.375 -2.65625 L 1.03125 -2.65625 L 1.03125 -2.25 L 1.078125 -2.25 C 1.140625 -2.394531 1.222656 -2.5 1.328125 -2.5625 C 1.429688 -2.632812 1.5625 -2.671875 1.71875 -2.671875 C 1.863281 -2.671875 1.976562 -2.644531 2.0625 -2.59375 L 1.9375 -2.03125 L 1.890625 -2.015625 C 1.847656 -2.035156 1.804688 -2.046875 1.765625 -2.046875 C 1.722656 -2.054688 1.675781 -2.0625 1.625 -2.0625 C 1.4375 -2.0625 1.289062 -1.992188 1.1875 -1.859375 C 1.09375 -1.734375 1.046875 -1.523438 1.046875 -1.234375 L 1.046875 0 Z M 0.375 0 "/></g></g></g><g fill="#ffffff" fill-opacity="1"><g transform="translate(55.478376, 85.212763)"><g><path d="M 2.625 -1.171875 L 0.921875 -1.171875 C 0.929688 -0.941406 0.992188 -0.773438 1.109375 -0.671875 C 1.222656 -0.566406 1.378906 -0.515625 1.578125 -0.515625 C 1.722656 -0.515625 1.84375 -0.539062 1.9375 -0.59375 C 2.03125 -0.65625 2.109375 -0.742188 2.171875 -0.859375 L 2.21875 -0.859375 L 2.65625 -0.578125 C 2.570312 -0.390625 2.441406 -0.238281 2.265625 -0.125 C 2.097656 -0.0078125 1.867188 0.046875 1.578125 0.046875 C 1.296875 0.046875 1.054688 -0.00390625 0.859375 -0.109375 C 0.660156 -0.210938 0.503906 -0.363281 0.390625 -0.5625 C 0.285156 -0.769531 0.234375 -1.023438 0.234375 -1.328125 C 0.234375 -1.628906 0.289062 -1.878906 0.40625 -2.078125 C 0.519531 -2.285156 0.671875 -2.441406 0.859375 -2.546875 C 1.054688 -2.648438 1.28125 -2.703125 1.53125 -2.703125 C 1.90625 -2.703125 2.191406 -2.601562 2.390625 -2.40625 C 2.585938 -2.207031 2.6875 -1.914062 2.6875 -1.53125 C 2.6875 -1.382812 2.679688 -1.273438 2.671875 -1.203125 Z M 2.046875 -1.609375 C 2.035156 -1.804688 1.988281 -1.953125 1.90625 -2.046875 C 1.820312 -2.140625 1.695312 -2.1875 1.53125 -2.1875 C 1.1875 -2.1875 0.988281 -1.992188 0.9375 -1.609375 Z M 2.046875 -1.609375 "/></g></g></g><g fill="#ffffff" fill-opacity="1"><g transform="translate(58.363037, 85.212763)"><g><path d="M 1.03125 0.046875 C 0.863281 0.046875 0.71875 0.015625 0.59375 -0.046875 C 0.46875 -0.109375 0.367188 -0.195312 0.296875 -0.3125 C 0.234375 -0.4375 0.203125 -0.582031 0.203125 -0.75 C 0.203125 -0.90625 0.234375 -1.035156 0.296875 -1.140625 C 0.367188 -1.253906 0.472656 -1.34375 0.609375 -1.40625 C 0.753906 -1.476562 0.941406 -1.53125 1.171875 -1.5625 C 1.328125 -1.59375 1.445312 -1.625 1.53125 -1.65625 C 1.613281 -1.6875 1.664062 -1.71875 1.6875 -1.75 C 1.71875 -1.789062 1.734375 -1.84375 1.734375 -1.90625 C 1.734375 -1.988281 1.703125 -2.050781 1.640625 -2.09375 C 1.585938 -2.144531 1.492188 -2.171875 1.359375 -2.171875 C 1.210938 -2.171875 1.070312 -2.132812 0.9375 -2.0625 C 0.800781 -2 0.6875 -1.914062 0.59375 -1.8125 L 0.546875 -1.8125 L 0.265625 -2.234375 C 0.398438 -2.378906 0.5625 -2.492188 0.75 -2.578125 C 0.945312 -2.660156 1.160156 -2.703125 1.390625 -2.703125 C 1.742188 -2.703125 2 -2.625 2.15625 -2.46875 C 2.3125 -2.320312 2.390625 -2.113281 2.390625 -1.84375 L 2.390625 -0.6875 C 2.390625 -0.570312 2.441406 -0.515625 2.546875 -0.515625 C 2.585938 -0.515625 2.625 -0.519531 2.65625 -0.53125 L 2.6875 -0.53125 L 2.734375 -0.0625 C 2.703125 -0.0390625 2.648438 -0.0195312 2.578125 0 C 2.515625 0.0078125 2.445312 0.015625 2.375 0.015625 C 2.21875 0.015625 2.09375 -0.0078125 2 -0.0625 C 1.914062 -0.125 1.851562 -0.222656 1.8125 -0.359375 L 1.765625 -0.359375 C 1.628906 -0.0859375 1.382812 0.046875 1.03125 0.046875 Z M 1.25 -0.453125 C 1.394531 -0.453125 1.515625 -0.5 1.609375 -0.59375 C 1.703125 -0.695312 1.75 -0.84375 1.75 -1.03125 L 1.75 -1.296875 L 1.703125 -1.3125 C 1.660156 -1.28125 1.609375 -1.253906 1.546875 -1.234375 C 1.484375 -1.210938 1.390625 -1.191406 1.265625 -1.171875 C 1.117188 -1.140625 1.015625 -1.09375 0.953125 -1.03125 C 0.890625 -0.976562 0.859375 -0.898438 0.859375 -0.796875 C 0.859375 -0.679688 0.890625 -0.59375 0.953125 -0.53125 C 1.023438 -0.476562 1.125 -0.453125 1.25 -0.453125 Z M 1.25 -0.453125 "/></g></g></g><g fill="#ffffff" fill-opacity="1"><g transform="translate(61.161086, 85.212763)"><g><path d="M 0.375 0 L 0.375 -2.65625 L 1.015625 -2.65625 L 1.015625 -2.296875 L 1.078125 -2.28125 C 1.160156 -2.425781 1.257812 -2.53125 1.375 -2.59375 C 1.488281 -2.664062 1.640625 -2.703125 1.828125 -2.703125 C 2.023438 -2.703125 2.179688 -2.660156 2.296875 -2.578125 C 2.421875 -2.503906 2.515625 -2.390625 2.578125 -2.234375 L 2.625 -2.234375 C 2.707031 -2.390625 2.8125 -2.503906 2.9375 -2.578125 C 3.0625 -2.660156 3.222656 -2.703125 3.421875 -2.703125 C 3.972656 -2.703125 4.25 -2.394531 4.25 -1.78125 L 4.25 0 L 3.578125 0 L 3.578125 -1.703125 C 3.578125 -1.859375 3.546875 -1.96875 3.484375 -2.03125 C 3.421875 -2.101562 3.320312 -2.140625 3.1875 -2.140625 C 2.820312 -2.140625 2.640625 -1.894531 2.640625 -1.40625 L 2.640625 0 L 1.984375 0 L 1.984375 -1.703125 C 1.984375 -1.859375 1.953125 -1.96875 1.890625 -2.03125 C 1.828125 -2.101562 1.726562 -2.140625 1.59375 -2.140625 C 1.425781 -2.140625 1.289062 -2.082031 1.1875 -1.96875 C 1.09375 -1.851562 1.046875 -1.671875 1.046875 -1.421875 L 1.046875 0 Z M 0.375 0 "/></g></g></g><g fill="#ffffff" fill-opacity="1"><g transform="translate(65.75152, 85.212763)"><g/></g></g><g fill="#ffffff" fill-opacity="1"><g transform="translate(66.913565, 85.212763)"><g><path d="M 1.921875 0.046875 C 1.597656 0.046875 1.3125 -0.0195312 1.0625 -0.15625 C 0.8125 -0.289062 0.617188 -0.488281 0.484375 -0.75 C 0.347656 -1.019531 0.28125 -1.351562 0.28125 -1.75 C 0.28125 -2.144531 0.347656 -2.476562 0.484375 -2.75 C 0.617188 -3.019531 0.8125 -3.222656 1.0625 -3.359375 C 1.3125 -3.492188 1.597656 -3.5625 1.921875 -3.5625 C 2.253906 -3.5625 2.539062 -3.492188 2.78125 -3.359375 C 3.019531 -3.234375 3.1875 -3.035156 3.28125 -2.765625 L 2.78125 -2.453125 L 2.71875 -2.453125 C 2.644531 -2.640625 2.539062 -2.769531 2.40625 -2.84375 C 2.28125 -2.925781 2.117188 -2.96875 1.921875 -2.96875 C 1.628906 -2.96875 1.398438 -2.867188 1.234375 -2.671875 C 1.078125 -2.484375 1 -2.175781 1 -1.75 C 1 -1.332031 1.078125 -1.023438 1.234375 -0.828125 C 1.398438 -0.640625 1.628906 -0.546875 1.921875 -0.546875 C 2.378906 -0.546875 2.660156 -0.769531 2.765625 -1.21875 L 2.8125 -1.21875 L 3.328125 -0.953125 C 3.234375 -0.617188 3.066406 -0.367188 2.828125 -0.203125 C 2.597656 -0.0351562 2.296875 0.046875 1.921875 0.046875 Z M 1.921875 0.046875 "/></g></g></g><g fill="#ffffff" fill-opacity="1"><g transform="translate(70.363606, 85.212763)"><g><path d="M 1.546875 0.046875 C 1.285156 0.046875 1.054688 -0.00390625 0.859375 -0.109375 C 0.660156 -0.210938 0.503906 -0.367188 0.390625 -0.578125 C 0.285156 -0.785156 0.234375 -1.035156 0.234375 -1.328125 C 0.234375 -1.617188 0.285156 -1.863281 0.390625 -2.0625 C 0.503906 -2.269531 0.660156 -2.425781 0.859375 -2.53125 C 1.054688 -2.644531 1.285156 -2.703125 1.546875 -2.703125 C 1.804688 -2.703125 2.03125 -2.644531 2.21875 -2.53125 C 2.414062 -2.425781 2.566406 -2.269531 2.671875 -2.0625 C 2.785156 -1.863281 2.84375 -1.617188 2.84375 -1.328125 C 2.84375 -1.035156 2.785156 -0.785156 2.671875 -0.578125 C 2.566406 -0.367188 2.414062 -0.210938 2.21875 -0.109375 C 2.03125 -0.00390625 1.804688 0.046875 1.546875 0.046875 Z M 1.546875 -0.515625 C 1.953125 -0.515625 2.15625 -0.785156 2.15625 -1.328125 C 2.15625 -1.609375 2.101562 -1.8125 2 -1.9375 C 1.894531 -2.070312 1.742188 -2.140625 1.546875 -2.140625 C 1.128906 -2.140625 0.921875 -1.867188 0.921875 -1.328125 C 0.921875 -0.785156 1.128906 -0.515625 1.546875 -0.515625 Z M 1.546875 -0.515625 "/></g></g></g><g fill="#ffffff" fill-opacity="1"><g transform="translate(73.447952, 85.212763)"><g><path d="M 0.375 0 L 0.375 -2.65625 L 1.015625 -2.65625 L 1.015625 -2.296875 L 1.078125 -2.28125 C 1.160156 -2.425781 1.257812 -2.53125 1.375 -2.59375 C 1.488281 -2.664062 1.640625 -2.703125 1.828125 -2.703125 C 2.023438 -2.703125 2.179688 -2.660156 2.296875 -2.578125 C 2.421875 -2.503906 2.515625 -2.390625 2.578125 -2.234375 L 2.625 -2.234375 C 2.707031 -2.390625 2.8125 -2.503906 2.9375 -2.578125 C 3.0625 -2.660156 3.222656 -2.703125 3.421875 -2.703125 C 3.972656 -2.703125 4.25 -2.394531 4.25 -1.78125 L 4.25 0 L 3.578125 0 L 3.578125 -1.703125 C 3.578125 -1.859375 3.546875 -1.96875 3.484375 -2.03125 C 3.421875 -2.101562 3.320312 -2.140625 3.1875 -2.140625 C 2.820312 -2.140625 2.640625 -1.894531 2.640625 -1.40625 L 2.640625 0 L 1.984375 0 L 1.984375 -1.703125 C 1.984375 -1.859375 1.953125 -1.96875 1.890625 -2.03125 C 1.828125 -2.101562 1.726562 -2.140625 1.59375 -2.140625 C 1.425781 -2.140625 1.289062 -2.082031 1.1875 -1.96875 C 1.09375 -1.851562 1.046875 -1.671875 1.046875 -1.421875 L 1.046875 0 Z M 0.375 0 "/></g></g></g><g fill="#ffffff" fill-opacity="1"><g transform="translate(78.038386, 85.212763)"><g><path d="M 0.375 1.078125 L 0.375 -2.65625 L 1.046875 -2.65625 L 1.046875 -2.3125 L 1.09375 -2.296875 C 1.175781 -2.429688 1.28125 -2.53125 1.40625 -2.59375 C 1.539062 -2.664062 1.695312 -2.703125 1.875 -2.703125 C 2.082031 -2.703125 2.265625 -2.648438 2.421875 -2.546875 C 2.585938 -2.453125 2.710938 -2.300781 2.796875 -2.09375 C 2.890625 -1.882812 2.9375 -1.628906 2.9375 -1.328125 C 2.9375 -1.023438 2.890625 -0.769531 2.796875 -0.5625 C 2.703125 -0.351562 2.570312 -0.195312 2.40625 -0.09375 C 2.238281 0 2.046875 0.046875 1.828125 0.046875 C 1.660156 0.046875 1.515625 0.0195312 1.390625 -0.03125 C 1.273438 -0.0820312 1.175781 -0.171875 1.09375 -0.296875 L 1.046875 -0.28125 L 1.046875 1.078125 Z M 1.640625 -0.515625 C 1.835938 -0.515625 1.988281 -0.578125 2.09375 -0.703125 C 2.195312 -0.835938 2.25 -1.046875 2.25 -1.328125 C 2.25 -1.609375 2.195312 -1.8125 2.09375 -1.9375 C 1.988281 -2.070312 1.835938 -2.140625 1.640625 -2.140625 C 1.460938 -2.140625 1.316406 -2.070312 1.203125 -1.9375 C 1.097656 -1.800781 1.046875 -1.597656 1.046875 -1.328125 C 1.046875 -1.054688 1.097656 -0.851562 1.203125 -0.71875 C 1.316406 -0.582031 1.460938 -0.515625 1.640625 -0.515625 Z M 1.640625 -0.515625 "/></g></g></g><g fill="#ffffff" fill-opacity="1"><g transform="translate(81.216563, 85.212763)"><g><path d="M 1.03125 0.046875 C 0.863281 0.046875 0.71875 0.015625 0.59375 -0.046875 C 0.46875 -0.109375 0.367188 -0.195312 0.296875 -0.3125 C 0.234375 -0.4375 0.203125 -0.582031 0.203125 -0.75 C 0.203125 -0.90625 0.234375 -1.035156 0.296875 -1.140625 C 0.367188 -1.253906 0.472656 -1.34375 0.609375 -1.40625 C 0.753906 -1.476562 0.941406 -1.53125 1.171875 -1.5625 C 1.328125 -1.59375 1.445312 -1.625 1.53125 -1.65625 C 1.613281 -1.6875 1.664062 -1.71875 1.6875 -1.75 C 1.71875 -1.789062 1.734375 -1.84375 1.734375 -1.90625 C 1.734375 -1.988281 1.703125 -2.050781 1.640625 -2.09375 C 1.585938 -2.144531 1.492188 -2.171875 1.359375 -2.171875 C 1.210938 -2.171875 1.070312 -2.132812 0.9375 -2.0625 C 0.800781 -2 0.6875 -1.914062 0.59375 -1.8125 L 0.546875 -1.8125 L 0.265625 -2.234375 C 0.398438 -2.378906 0.5625 -2.492188 0.75 -2.578125 C 0.945312 -2.660156 1.160156 -2.703125 1.390625 -2.703125 C 1.742188 -2.703125 2 -2.625 2.15625 -2.46875 C 2.3125 -2.320312 2.390625 -2.113281 2.390625 -1.84375 L 2.390625 -0.6875 C 2.390625 -0.570312 2.441406 -0.515625 2.546875 -0.515625 C 2.585938 -0.515625 2.625 -0.519531 2.65625 -0.53125 L 2.6875 -0.53125 L 2.734375 -0.0625 C 2.703125 -0.0390625 2.648438 -0.0195312 2.578125 0 C 2.515625 0.0078125 2.445312 0.015625 2.375 0.015625 C 2.21875 0.015625 2.09375 -0.0078125 2 -0.0625 C 1.914062 -0.125 1.851562 -0.222656 1.8125 -0.359375 L 1.765625 -0.359375 C 1.628906 -0.0859375 1.382812 0.046875 1.03125 0.046875 Z M 1.25 -0.453125 C 1.394531 -0.453125 1.515625 -0.5 1.609375 -0.59375 C 1.703125 -0.695312 1.75 -0.84375 1.75 -1.03125 L 1.75 -1.296875 L 1.703125 -1.3125 C 1.660156 -1.28125 1.609375 -1.253906 1.546875 -1.234375 C 1.484375 -1.210938 1.390625 -1.191406 1.265625 -1.171875 C 1.117188 -1.140625 1.015625 -1.09375 0.953125 -1.03125 C 0.890625 -0.976562 0.859375 -0.898438 0.859375 -0.796875 C 0.859375 -0.679688 0.890625 -0.59375 0.953125 -0.53125 C 1.023438 -0.476562 1.125 -0.453125 1.25 -0.453125 Z M 1.25 -0.453125 "/></g></g></g><g fill="#ffffff" fill-opacity="1"><g transform="translate(84.014612, 85.212763)"><g><path d="M 0.375 0 L 0.375 -2.65625 L 1.015625 -2.65625 L 1.015625 -2.265625 L 1.078125 -2.25 C 1.234375 -2.550781 1.5 -2.703125 1.875 -2.703125 C 2.175781 -2.703125 2.398438 -2.617188 2.546875 -2.453125 C 2.691406 -2.285156 2.765625 -2.039062 2.765625 -1.71875 L 2.765625 0 L 2.09375 0 L 2.09375 -1.640625 C 2.09375 -1.816406 2.054688 -1.941406 1.984375 -2.015625 C 1.921875 -2.097656 1.8125 -2.140625 1.65625 -2.140625 C 1.46875 -2.140625 1.316406 -2.078125 1.203125 -1.953125 C 1.097656 -1.828125 1.046875 -1.632812 1.046875 -1.375 L 1.046875 0 Z M 0.375 0 "/></g></g></g><g fill="#ffffff" fill-opacity="1"><g transform="translate(87.123019, 85.212763)"><g><path d="M 0.59375 1.125 C 0.476562 1.125 0.375 1.113281 0.28125 1.09375 C 0.1875 1.082031 0.109375 1.0625 0.046875 1.03125 L 0.15625 0.484375 L 0.203125 0.46875 C 0.242188 0.488281 0.289062 0.503906 0.34375 0.515625 C 0.40625 0.535156 0.46875 0.546875 0.53125 0.546875 C 0.632812 0.546875 0.722656 0.53125 0.796875 0.5 C 0.867188 0.476562 0.929688 0.429688 0.984375 0.359375 C 1.035156 0.296875 1.078125 0.207031 1.109375 0.09375 L 0.0625 -2.65625 L 0.75 -2.65625 L 1.40625 -0.8125 L 1.46875 -0.8125 L 2.109375 -2.65625 L 2.796875 -2.65625 L 1.71875 0.171875 C 1.632812 0.390625 1.539062 0.566406 1.4375 0.703125 C 1.34375 0.847656 1.222656 0.953125 1.078125 1.015625 C 0.941406 1.085938 0.78125 1.125 0.59375 1.125 Z M 0.59375 1.125 "/></g></g></g></svg>